<svg
          width="86"
          height="17"
          viewBox="0 0 86 17"
          fill="none"
          xmlns="http://www.w3.org/2000/svg"
        >
          <path
            d="M10.998 0.929999C11.4286 0.929999 11.78 1.07167 12.052 1.355C12.324 1.63833 12.46 2.00667 12.46 2.46V11.708C12.46 12.1387 12.3353 12.4787 12.086 12.728C11.8366 12.9773 11.508 13.102 11.1 13.102C10.7033 13.102 10.3746 12.9773 10.114 12.728C9.86463 12.4787 9.73997 12.1387 9.73997 11.708V6.71L7.80197 10.28C7.6093 10.6427 7.4053 10.9033 7.18997 11.062C6.97463 11.2093 6.71963 11.283 6.42497 11.283C6.1303 11.283 5.8753 11.2093 5.65997 11.062C5.44463 10.9033 5.24063 10.6427 5.04797 10.28L3.12697 6.812V11.708C3.12697 12.1273 2.99663 12.4673 2.73597 12.728C2.48663 12.9773 2.15797 13.102 1.74997 13.102C1.3533 13.102 1.02463 12.9773 0.763967 12.728C0.514634 12.4787 0.389967 12.1387 0.389967 11.708V2.46C0.389967 2.00667 0.525967 1.63833 0.797967 1.355C1.0813 1.07167 1.4383 0.929999 1.86897 0.929999C2.17497 0.929999 2.45263 1.02067 2.70197 1.202C2.9513 1.372 3.16097 1.62133 3.33097 1.95L6.45897 7.832L9.56997 1.95C9.9213 1.27 10.3973 0.929999 10.998 0.929999ZM20.1555 5.316C20.2802 5.03267 20.4502 4.823 20.6655 4.687C20.8808 4.551 21.1188 4.483 21.3795 4.483C21.7535 4.483 22.0878 4.60767 22.3825 4.857C22.6772 5.10633 22.8245 5.40667 22.8245 5.758C22.8245 5.95067 22.7792 6.13767 22.6885 6.319L18.1835 15.346C18.0475 15.6293 17.8662 15.839 17.6395 15.975C17.4242 16.111 17.1862 16.179 16.9255 16.179C16.5515 16.179 16.2172 16.0543 15.9225 15.805C15.6392 15.567 15.4975 15.2723 15.4975 14.921C15.4975 14.7283 15.5485 14.53 15.6505 14.326L16.7555 12.099L13.8655 6.319C13.7748 6.115 13.7295 5.93367 13.7295 5.775C13.7295 5.41233 13.8882 5.10633 14.2055 4.857C14.5228 4.59633 14.8798 4.466 15.2765 4.466C15.5485 4.466 15.7978 4.53967 16.0245 4.687C16.2625 4.823 16.4438 5.03267 16.5685 5.316L18.3705 9.226L20.1555 5.316Z"
            fill="#23A6F0"
          />
          <path
            d="M32.6658 1.746C32.7904 1.474 32.9661 1.27 33.1928 1.134C33.4194 0.997999 33.6688 0.929999 33.9408 0.929999C34.3488 0.929999 34.7171 1.06033 35.0458 1.321C35.3744 1.58167 35.5388 1.91033 35.5388 2.307C35.5388 2.49967 35.4878 2.698 35.3858 2.902L30.8978 12.167C30.7504 12.473 30.5294 12.711 30.2348 12.881C29.9401 13.0397 29.6228 13.119 29.2828 13.119C28.9428 13.119 28.6254 13.0397 28.3308 12.881C28.0361 12.711 27.8151 12.473 27.6678 12.167L23.1798 2.902C23.0891 2.72067 23.0438 2.52233 23.0438 2.307C23.0438 1.92167 23.2138 1.59867 23.5538 1.338C23.8938 1.066 24.2734 0.929999 24.6928 0.929999C24.9648 0.929999 25.2141 0.997999 25.4408 1.134C25.6788 1.27 25.8601 1.474 25.9848 1.746L29.3338 8.988L32.6658 1.746ZM39.4573 4.432C40.7493 4.432 41.7013 4.74367 42.3133 5.367C42.9366 5.979 43.2483 6.914 43.2483 8.172V11.725C43.2483 12.1557 43.1179 12.4957 42.8573 12.745C42.6079 12.983 42.2566 13.102 41.8033 13.102C41.4066 13.102 41.0779 12.9887 40.8173 12.762C40.5679 12.5353 40.4319 12.2293 40.4093 11.844C40.2506 12.252 39.9843 12.5693 39.6103 12.796C39.2363 13.0227 38.7886 13.136 38.2673 13.136C37.6893 13.136 37.1679 13.0227 36.7033 12.796C36.2386 12.558 35.8703 12.235 35.5983 11.827C35.3376 11.4077 35.2073 10.9373 35.2073 10.416C35.2073 9.81533 35.3603 9.33933 35.6663 8.988C35.9836 8.62533 36.4823 8.36467 37.1623 8.206C37.8423 8.04733 38.7603 7.968 39.9163 7.968H40.3753V7.764C40.3753 7.36733 40.2846 7.084 40.1033 6.914C39.9219 6.73267 39.6159 6.642 39.1853 6.642C38.7206 6.642 38.0406 6.80067 37.1453 7.118C36.8846 7.20867 36.6636 7.254 36.4823 7.254C36.1989 7.254 35.9723 7.152 35.8023 6.948C35.6323 6.744 35.5473 6.47767 35.5473 6.149C35.5473 5.89967 35.5983 5.69567 35.7003 5.537C35.8023 5.37833 35.9666 5.23667 36.1933 5.112C36.5899 4.908 37.0886 4.74367 37.6893 4.619C38.2899 4.49433 38.8793 4.432 39.4573 4.432ZM38.9813 11.113C39.3893 11.113 39.7236 10.9713 39.9843 10.688C40.2449 10.3933 40.3753 10.0193 40.3753 9.566V9.362H40.1033C39.3779 9.362 38.8623 9.43 38.5563 9.566C38.2503 9.69067 38.0973 9.906 38.0973 10.212C38.0973 10.4727 38.1766 10.688 38.3353 10.858C38.5053 11.028 38.7206 11.113 38.9813 11.113ZM49.0732 13.136C47.7132 13.136 46.6365 12.7507 45.8432 11.98C45.0498 11.2093 44.6532 10.161 44.6532 8.835C44.6532 7.96233 44.8458 7.19167 45.2312 6.523C45.6165 5.85433 46.1548 5.33867 46.8462 4.976C47.5488 4.61333 48.3478 4.432 49.2432 4.432C49.7192 4.432 50.1952 4.49433 50.6712 4.619C51.1472 4.74367 51.5665 4.91933 51.9292 5.146C52.2805 5.36133 52.4562 5.69 52.4562 6.132C52.4562 6.48333 52.3712 6.77233 52.2012 6.999C52.0425 7.21433 51.8328 7.322 51.5722 7.322C51.4022 7.322 51.2378 7.29933 51.0792 7.254C50.9205 7.19733 50.7448 7.118 50.5522 7.016C50.3255 6.914 50.1328 6.84033 49.9742 6.795C49.8155 6.73833 49.6398 6.71 49.4472 6.71C48.3252 6.71 47.7642 7.39567 47.7642 8.767C47.7642 9.447 47.9058 9.96833 48.1892 10.331C48.4838 10.6823 48.9032 10.858 49.4472 10.858C49.6398 10.858 49.8155 10.8353 49.9742 10.79C50.1442 10.7333 50.3312 10.654 50.5352 10.552C50.7618 10.45 50.9432 10.3763 51.0792 10.331C51.2265 10.2743 51.3852 10.246 51.5552 10.246C51.8158 10.246 52.0255 10.3593 52.1842 10.586C52.3542 10.8013 52.4392 11.0847 52.4392 11.436C52.4392 11.6513 52.3938 11.8497 52.3032 12.031C52.2125 12.201 52.0878 12.3313 51.9292 12.422C51.1472 12.898 50.1952 13.136 49.0732 13.136ZM57.6732 13.136C56.3132 13.136 55.2365 12.7507 54.4432 11.98C53.6498 11.2093 53.2532 10.161 53.2532 8.835C53.2532 7.96233 53.4458 7.19167 53.8312 6.523C54.2165 5.85433 54.7548 5.33867 55.4462 4.976C56.1488 4.61333 56.9478 4.432 57.8432 4.432C58.3192 4.432 58.7952 4.49433 59.2712 4.619C59.7472 4.74367 60.1665 4.91933 60.5292 5.146C60.8805 5.36133 61.0562 5.69 61.0562 6.132C61.0562 6.48333 60.9712 6.77233 60.8012 6.999C60.6425 7.21433 60.4328 7.322 60.1722 7.322C60.0022 7.322 59.8378 7.29933 59.6792 7.254C59.5205 7.19733 59.3448 7.118 59.1522 7.016C58.9255 6.914 58.7328 6.84033 58.5742 6.795C58.4155 6.73833 58.2398 6.71 58.0472 6.71C56.9252 6.71 56.3642 7.39567 56.3642 8.767C56.3642 9.447 56.5058 9.96833 56.7892 10.331C57.0838 10.6823 57.5032 10.858 58.0472 10.858C58.2398 10.858 58.4155 10.8353 58.5742 10.79C58.7442 10.7333 58.9312 10.654 59.1352 10.552C59.3618 10.45 59.5432 10.3763 59.6792 10.331C59.8265 10.2743 59.9852 10.246 60.1552 10.246C60.4158 10.246 60.6255 10.3593 60.7842 10.586C60.9542 10.8013 61.0392 11.0847 61.0392 11.436C61.0392 11.6513 60.9938 11.8497 60.9032 12.031C60.8125 12.201 60.6878 12.3313 60.5292 12.422C59.7472 12.898 58.7952 13.136 57.6732 13.136ZM63.7572 13.102C63.3265 13.102 62.9638 12.9887 62.6692 12.762C62.3858 12.524 62.2442 12.1727 62.2442 11.708V5.86C62.2442 5.39533 62.3858 5.04967 62.6692 4.823C62.9638 4.585 63.3265 4.466 63.7572 4.466C64.1878 4.466 64.5448 4.585 64.8282 4.823C65.1228 5.04967 65.2702 5.39533 65.2702 5.86V11.708C65.2702 12.1727 65.1228 12.524 64.8282 12.762C64.5448 12.9887 64.1878 13.102 63.7572 13.102ZM63.7572 3.276C63.2472 3.276 62.8392 3.14567 62.5332 2.885C62.2385 2.613 62.0912 2.256 62.0912 1.814C62.0912 1.372 62.2385 1.02067 62.5332 0.76C62.8392 0.499333 63.2472 0.368999 63.7572 0.368999C64.2558 0.368999 64.6582 0.499333 64.9642 0.76C65.2702 1.02067 65.4232 1.372 65.4232 1.814C65.4232 2.256 65.2702 2.613 64.9642 2.885C64.6695 3.14567 64.2672 3.276 63.7572 3.276ZM72.7524 4.432C73.7497 4.432 74.4921 4.73233 74.9794 5.333C75.4667 5.92233 75.7104 6.82333 75.7104 8.036V11.708C75.7104 12.1387 75.5744 12.4787 75.3024 12.728C75.0304 12.9773 74.6621 13.102 74.1974 13.102C73.7327 13.102 73.3644 12.9773 73.0924 12.728C72.8204 12.4787 72.6844 12.1387 72.6844 11.708V8.172C72.6844 7.67333 72.5937 7.31067 72.4124 7.084C72.2424 6.85733 71.9817 6.744 71.6304 6.744C71.1771 6.744 70.8144 6.89133 70.5424 7.186C70.2817 7.46933 70.1514 7.85467 70.1514 8.342V11.708C70.1514 12.1387 70.0154 12.4787 69.7434 12.728C69.4714 12.9773 69.1031 13.102 68.6384 13.102C68.1737 13.102 67.8054 12.9773 67.5334 12.728C67.2614 12.4787 67.1254 12.1387 67.1254 11.708V5.826C67.1254 5.42933 67.2671 5.10633 67.5504 4.857C67.8337 4.59633 68.2021 4.466 68.6554 4.466C69.0861 4.466 69.4261 4.585 69.6754 4.823C69.9361 5.061 70.0664 5.37267 70.0664 5.758C70.3611 5.32733 70.7407 4.99867 71.2054 4.772C71.6701 4.54533 72.1857 4.432 72.7524 4.432ZM84.3184 10.314C84.579 10.314 84.7887 10.416 84.9474 10.62C85.1174 10.824 85.2024 11.0903 85.2024 11.419C85.2024 11.8723 84.9814 12.218 84.5394 12.456C84.154 12.6487 83.695 12.813 83.1624 12.949C82.641 13.0737 82.1594 13.136 81.7174 13.136C80.788 13.136 79.9777 12.9603 79.2864 12.609C78.595 12.2577 78.0624 11.7533 77.6884 11.096C77.3144 10.4387 77.1274 9.668 77.1274 8.784C77.1274 7.94533 77.303 7.19733 77.6544 6.54C78.017 5.87133 78.5157 5.35567 79.1504 4.993C79.7964 4.619 80.5217 4.432 81.3264 4.432C82.1084 4.432 82.794 4.602 83.3834 4.942C83.9727 5.282 84.426 5.76367 84.7434 6.387C85.072 7.01033 85.2364 7.74133 85.2364 8.58C85.2364 8.84067 85.174 9.04467 85.0494 9.192C84.936 9.328 84.766 9.396 84.5394 9.396H80.0514C80.1307 9.94 80.3064 10.331 80.5784 10.569C80.8504 10.807 81.2527 10.926 81.7854 10.926C82.0687 10.926 82.3294 10.8977 82.5674 10.841C82.8054 10.773 83.0717 10.6823 83.3664 10.569C83.5364 10.501 83.7007 10.4443 83.8594 10.399C84.0294 10.3423 84.1824 10.314 84.3184 10.314ZM81.4114 6.472C81.0147 6.472 80.6974 6.60233 80.4594 6.863C80.2214 7.11233 80.0797 7.48067 80.0344 7.968H82.7034C82.6354 6.97067 82.2047 6.472 81.4114 6.472Z"
            fill="#252B42"
          />
        </svg>